<svg width="25" height="17" viewBox="0 0 25 17" fill="none" xmlns="http://www.w3.org/2000/svg">
<path d="M12.5 2.26667C16.8068 2.26667 20.6477 4.68067 22.5227 8.5C20.6477 12.3193 16.8068 14.7333 12.5 14.7333C8.19318 14.7333 4.35227 12.3193 2.47727 8.5C4.35227 4.68067 8.19318 2.26667 12.5 2.26667ZM12.5 0C6.81818 0 1.96591 3.52467 0 8.5C1.96591 13.4753 6.81818 17 12.5 17C18.1818 17 23.0341 13.4753 25 8.5C23.0341 3.52467 18.1818 0 12.5 0ZM12.5 5.66667C14.0682 5.66667 15.3409 6.936 15.3409 8.5C15.3409 10.064 14.0682 11.3333 12.5 11.3333C10.9318 11.3333 9.65909 10.064 9.65909 8.5C9.65909 6.936 10.9318 5.66667 12.5 5.66667ZM12.5 3.4C9.68182 3.4 7.38636 5.68933 7.38636 8.5C7.38636 11.3107 9.68182 13.6 12.5 13.6C15.3182 13.6 17.6136 11.3107 17.6136 8.5C17.6136 5.68933 15.3182 3.4 12.5 3.4Z" fill="white"/>
</svg>
